<svg xmlns="http://www.w3.org/2000/svg" xmlns:xlink="http://www.w3.org/1999/xlink" width="600" height="400" viewBox="0 0 2400 1600">
<defs>
  <clipPath id="clip910">
    <rect x="0" y="0" width="2400" height="1600"></rect>
  </clipPath>
</defs>
<path clip-path="url(#clip910)" d="
M0 1600 L2400 1600 L2400 0 L0 0  Z
  " fill="#ffffff" fill-rule="evenodd" fill-opacity="1"></path>
<defs>
  <clipPath id="clip911">
    <rect x="480" y="0" width="1681" height="1600"></rect>
  </clipPath>
</defs>
<path clip-path="url(#clip910)" d="
M202.227 686.448 L2352.76 686.448 L2352.76 123.472 L202.227 123.472  Z
  " fill="#ffffff" fill-rule="evenodd" fill-opacity="1"></path>
<defs>
  <clipPath id="clip912">
    <rect x="202" y="123" width="2152" height="564"></rect>
  </clipPath>
</defs>
<polyline clip-path="url(#clip912)" style="stroke:#000000; stroke-linecap:butt; stroke-linejoin:round; stroke-width:2; stroke-opacity:0.1; fill:none" points="
  593.934,686.448 593.934,123.472 
  "></polyline>
<polyline clip-path="url(#clip912)" style="stroke:#000000; stroke-linecap:butt; stroke-linejoin:round; stroke-width:2; stroke-opacity:0.1; fill:none" points="
  1140.78,686.448 1140.78,123.472 
  "></polyline>
<polyline clip-path="url(#clip912)" style="stroke:#000000; stroke-linecap:butt; stroke-linejoin:round; stroke-width:2; stroke-opacity:0.1; fill:none" points="
  1687.63,686.448 1687.63,123.472 
  "></polyline>
<polyline clip-path="url(#clip912)" style="stroke:#000000; stroke-linecap:butt; stroke-linejoin:round; stroke-width:2; stroke-opacity:0.1; fill:none" points="
  2234.47,686.448 2234.47,123.472 
  "></polyline>
<polyline clip-path="url(#clip910)" style="stroke:#000000; stroke-linecap:butt; stroke-linejoin:round; stroke-width:4; stroke-opacity:1; fill:none" points="
  202.227,686.448 2352.76,686.448 
  "></polyline>
<polyline clip-path="url(#clip910)" style="stroke:#000000; stroke-linecap:butt; stroke-linejoin:round; stroke-width:4; stroke-opacity:1; fill:none" points="
  593.934,686.448 593.934,667.55 
  "></polyline>
<polyline clip-path="url(#clip910)" style="stroke:#000000; stroke-linecap:butt; stroke-linejoin:round; stroke-width:4; stroke-opacity:1; fill:none" points="
  1140.78,686.448 1140.78,667.55 
  "></polyline>
<polyline clip-path="url(#clip910)" style="stroke:#000000; stroke-linecap:butt; stroke-linejoin:round; stroke-width:4; stroke-opacity:1; fill:none" points="
  1687.63,686.448 1687.63,667.55 
  "></polyline>
<polyline clip-path="url(#clip910)" style="stroke:#000000; stroke-linecap:butt; stroke-linejoin:round; stroke-width:4; stroke-opacity:1; fill:none" points="
  2234.47,686.448 2234.47,667.55 
  "></polyline>
<path clip-path="url(#clip910)" d="M563.876 732.019 L593.552 732.019 L593.552 735.954 L563.876 735.954 L563.876 732.019 Z" fill="#000000" fill-rule="evenodd" fill-opacity="1"></path><path clip-path="url(#clip910)" d="M607.672 744.913 L623.991 744.913 L623.991 748.848 L602.047 748.848 L602.047 744.913 Q604.709 742.158 609.292 737.528 Q613.899 732.876 615.079 731.533 Q617.325 729.01 618.204 727.274 Q619.107 725.515 619.107 723.825 Q619.107 721.07 617.163 719.334 Q615.241 717.598 612.14 717.598 Q609.94 717.598 607.487 718.362 Q605.056 719.126 602.278 720.677 L602.278 715.955 Q605.103 714.82 607.556 714.242 Q610.01 713.663 612.047 713.663 Q617.417 713.663 620.612 716.348 Q623.806 719.033 623.806 723.524 Q623.806 725.654 622.996 727.575 Q622.209 729.473 620.102 732.066 Q619.524 732.737 616.422 735.954 Q613.32 739.149 607.672 744.913 Z" fill="#000000" fill-rule="evenodd" fill-opacity="1"></path><path clip-path="url(#clip910)" d="M1140.78 717.367 Q1137.17 717.367 1135.34 720.931 Q1133.53 724.473 1133.53 731.603 Q1133.53 738.709 1135.34 742.274 Q1137.17 745.815 1140.78 745.815 Q1144.41 745.815 1146.22 742.274 Q1148.05 738.709 1148.05 731.603 Q1148.05 724.473 1146.22 720.931 Q1144.41 717.367 1140.78 717.367 M1140.78 713.663 Q1146.59 713.663 1149.65 718.269 Q1152.72 722.853 1152.72 731.603 Q1152.72 740.329 1149.65 744.936 Q1146.59 749.519 1140.78 749.519 Q1134.97 749.519 1131.89 744.936 Q1128.84 740.329 1128.84 731.603 Q1128.84 722.853 1131.89 718.269 Q1134.97 713.663 1140.78 713.663 Z" fill="#000000" fill-rule="evenodd" fill-opacity="1"></path><path clip-path="url(#clip910)" d="M1682.28 744.913 L1698.6 744.913 L1698.6 748.848 L1676.65 748.848 L1676.65 744.913 Q1679.32 742.158 1683.9 737.528 Q1688.51 732.876 1689.69 731.533 Q1691.93 729.01 1692.81 727.274 Q1693.71 725.515 1693.71 723.825 Q1693.71 721.07 1691.77 719.334 Q1689.85 717.598 1686.75 717.598 Q1684.55 717.598 1682.09 718.362 Q1679.66 719.126 1676.89 720.677 L1676.89 715.955 Q1679.71 714.82 1682.16 714.242 Q1684.62 713.663 1686.65 713.663 Q1692.02 713.663 1695.22 716.348 Q1698.41 719.033 1698.41 723.524 Q1698.41 725.654 1697.6 727.575 Q1696.82 729.473 1694.71 732.066 Q1694.13 732.737 1691.03 735.954 Q1687.93 739.149 1682.28 744.913 Z" fill="#000000" fill-rule="evenodd" fill-opacity="1"></path><path clip-path="url(#clip910)" d="M2237.48 718.362 L2225.68 736.811 L2237.48 736.811 L2237.48 718.362 M2236.26 714.288 L2242.14 714.288 L2242.14 736.811 L2247.07 736.811 L2247.07 740.7 L2242.14 740.7 L2242.14 748.848 L2237.48 748.848 L2237.48 740.7 L2221.88 740.7 L2221.88 736.186 L2236.26 714.288 Z" fill="#000000" fill-rule="evenodd" fill-opacity="1"></path><polyline clip-path="url(#clip912)" style="stroke:#000000; stroke-linecap:butt; stroke-linejoin:round; stroke-width:2; stroke-opacity:0.1; fill:none" points="
  202.227,670.515 2352.76,670.515 
  "></polyline>
<polyline clip-path="url(#clip912)" style="stroke:#000000; stroke-linecap:butt; stroke-linejoin:round; stroke-width:2; stroke-opacity:0.1; fill:none" points="
  202.227,530.749 2352.76,530.749 
  "></polyline>
<polyline clip-path="url(#clip912)" style="stroke:#000000; stroke-linecap:butt; stroke-linejoin:round; stroke-width:2; stroke-opacity:0.1; fill:none" points="
  202.227,390.983 2352.76,390.983 
  "></polyline>
<polyline clip-path="url(#clip912)" style="stroke:#000000; stroke-linecap:butt; stroke-linejoin:round; stroke-width:2; stroke-opacity:0.1; fill:none" points="
  202.227,251.218 2352.76,251.218 
  "></polyline>
<polyline clip-path="url(#clip910)" style="stroke:#000000; stroke-linecap:butt; stroke-linejoin:round; stroke-width:4; stroke-opacity:1; fill:none" points="
  202.227,686.448 202.227,123.472 
  "></polyline>
<polyline clip-path="url(#clip910)" style="stroke:#000000; stroke-linecap:butt; stroke-linejoin:round; stroke-width:4; stroke-opacity:1; fill:none" points="
  202.227,670.515 221.125,670.515 
  "></polyline>
<polyline clip-path="url(#clip910)" style="stroke:#000000; stroke-linecap:butt; stroke-linejoin:round; stroke-width:4; stroke-opacity:1; fill:none" points="
  202.227,530.749 221.125,530.749 
  "></polyline>
<polyline clip-path="url(#clip910)" style="stroke:#000000; stroke-linecap:butt; stroke-linejoin:round; stroke-width:4; stroke-opacity:1; fill:none" points="
  202.227,390.983 221.125,390.983 
  "></polyline>
<polyline clip-path="url(#clip910)" style="stroke:#000000; stroke-linecap:butt; stroke-linejoin:round; stroke-width:4; stroke-opacity:1; fill:none" points="
  202.227,251.218 221.125,251.218 
  "></polyline>
<path clip-path="url(#clip910)" d="M154.283 656.313 Q150.672 656.313 148.843 659.878 Q147.038 663.42 147.038 670.549 Q147.038 677.656 148.843 681.221 Q150.672 684.762 154.283 684.762 Q157.917 684.762 159.723 681.221 Q161.552 677.656 161.552 670.549 Q161.552 663.42 159.723 659.878 Q157.917 656.313 154.283 656.313 M154.283 652.61 Q160.093 652.61 163.149 657.216 Q166.227 661.799 166.227 670.549 Q166.227 679.276 163.149 683.883 Q160.093 688.466 154.283 688.466 Q148.473 688.466 145.394 683.883 Q142.339 679.276 142.339 670.549 Q142.339 661.799 145.394 657.216 Q148.473 652.61 154.283 652.61 Z" fill="#000000" fill-rule="evenodd" fill-opacity="1"></path><path clip-path="url(#clip910)" d="M145.325 513.469 L163.681 513.469 L163.681 517.404 L149.607 517.404 L149.607 525.876 Q150.626 525.529 151.644 525.367 Q152.663 525.182 153.681 525.182 Q159.468 525.182 162.848 528.353 Q166.227 531.524 166.227 536.941 Q166.227 542.52 162.755 545.622 Q159.283 548.7 152.964 548.7 Q150.788 548.7 148.519 548.33 Q146.274 547.96 143.866 547.219 L143.866 542.52 Q145.95 543.654 148.172 544.21 Q150.394 544.765 152.871 544.765 Q156.876 544.765 159.214 542.659 Q161.552 540.552 161.552 536.941 Q161.552 533.33 159.214 531.224 Q156.876 529.117 152.871 529.117 Q150.996 529.117 149.121 529.534 Q147.269 529.95 145.325 530.83 L145.325 513.469 Z" fill="#000000" fill-rule="evenodd" fill-opacity="1"></path><path clip-path="url(#clip910)" d="M114.931 404.328 L122.57 404.328 L122.57 377.963 L114.26 379.629 L114.26 375.37 L122.524 373.703 L127.2 373.703 L127.2 404.328 L134.839 404.328 L134.839 408.263 L114.931 408.263 L114.931 404.328 Z" fill="#000000" fill-rule="evenodd" fill-opacity="1"></path><path clip-path="url(#clip910)" d="M154.283 376.782 Q150.672 376.782 148.843 380.347 Q147.038 383.889 147.038 391.018 Q147.038 398.125 148.843 401.689 Q150.672 405.231 154.283 405.231 Q157.917 405.231 159.723 401.689 Q161.552 398.125 161.552 391.018 Q161.552 383.889 159.723 380.347 Q157.917 376.782 154.283 376.782 M154.283 373.078 Q160.093 373.078 163.149 377.685 Q166.227 382.268 166.227 391.018 Q166.227 399.745 163.149 404.351 Q160.093 408.935 154.283 408.935 Q148.473 408.935 145.394 404.351 Q142.339 399.745 142.339 391.018 Q142.339 382.268 145.394 377.685 Q148.473 373.078 154.283 373.078 Z" fill="#000000" fill-rule="evenodd" fill-opacity="1"></path><path clip-path="url(#clip910)" d="M115.927 264.563 L123.566 264.563 L123.566 238.197 L115.256 239.864 L115.256 235.605 L123.519 233.938 L128.195 233.938 L128.195 264.563 L135.834 264.563 L135.834 268.498 L115.927 268.498 L115.927 264.563 Z" fill="#000000" fill-rule="evenodd" fill-opacity="1"></path><path clip-path="url(#clip910)" d="M145.325 233.938 L163.681 233.938 L163.681 237.873 L149.607 237.873 L149.607 246.345 Q150.626 245.998 151.644 245.836 Q152.663 245.651 153.681 245.651 Q159.468 245.651 162.848 248.822 Q166.227 251.993 166.227 257.41 Q166.227 262.989 162.755 266.09 Q159.283 269.169 152.964 269.169 Q150.788 269.169 148.519 268.799 Q146.274 268.428 143.866 267.688 L143.866 262.989 Q145.95 264.123 148.172 264.678 Q150.394 265.234 152.871 265.234 Q156.876 265.234 159.214 263.128 Q161.552 261.021 161.552 257.41 Q161.552 253.799 159.214 251.692 Q156.876 249.586 152.871 249.586 Q150.996 249.586 149.121 250.003 Q147.269 250.419 145.325 251.299 L145.325 233.938 Z" fill="#000000" fill-rule="evenodd" fill-opacity="1"></path><path clip-path="url(#clip910)" d="M16.4842 610.206 L16.4842 603.777 L58.5933 603.777 L58.5933 580.638 L64.0042 580.638 L64.0042 610.206 L16.4842 610.206 Z" fill="#000000" fill-rule="evenodd" fill-opacity="1"></path><path clip-path="url(#clip910)" d="M32.4621 561.477 Q32.4621 566.187 36.1542 568.925 Q39.8145 571.662 46.212 571.662 Q52.6095 571.662 56.3017 568.957 Q59.9619 566.219 59.9619 561.477 Q59.9619 556.798 56.2698 554.061 Q52.5777 551.324 46.212 551.324 Q39.8781 551.324 36.186 554.061 Q32.4621 556.798 32.4621 561.477 M27.4968 561.477 Q27.4968 553.838 32.4621 549.477 Q37.4273 545.117 46.212 545.117 Q54.9649 545.117 59.9619 549.477 Q64.9272 553.838 64.9272 561.477 Q64.9272 569.147 59.9619 573.508 Q54.9649 577.837 46.212 577.837 Q37.4273 577.837 32.4621 573.508 Q27.4968 569.147 27.4968 561.477 Z" fill="#000000" fill-rule="evenodd" fill-opacity="1"></path><path clip-path="url(#clip910)" d="M45.7664 511.952 Q39.4007 511.952 35.8996 514.593 Q32.3984 517.203 32.3984 521.946 Q32.3984 526.656 35.8996 529.298 Q39.4007 531.908 45.7664 531.908 Q52.1003 531.908 55.6014 529.298 Q59.1026 526.656 59.1026 521.946 Q59.1026 517.203 55.6014 514.593 Q52.1003 511.952 45.7664 511.952 M59.58 506.095 Q68.683 506.095 73.1071 510.137 Q77.5631 514.18 77.5631 522.519 Q77.5631 525.606 77.0857 528.343 Q76.6401 531.081 75.6852 533.659 L69.9879 533.659 Q71.3884 531.081 72.0568 528.566 Q72.7252 526.052 72.7252 523.442 Q72.7252 517.681 69.7015 514.816 Q66.7096 511.952 60.6303 511.952 L57.7339 511.952 Q60.885 513.766 62.4446 516.599 Q64.0042 519.431 64.0042 523.378 Q64.0042 529.935 59.0071 533.945 Q54.01 537.956 45.7664 537.956 Q37.491 537.956 32.4939 533.945 Q27.4968 529.935 27.4968 523.378 Q27.4968 519.431 29.0564 516.599 Q30.616 513.766 33.7671 511.952 L28.3562 511.952 L28.3562 506.095 L59.58 506.095 Z" fill="#000000" fill-rule="evenodd" fill-opacity="1"></path><path clip-path="url(#clip910)" d="M20.8447 453.769 Q20.8447 460.771 26.0645 464.909 Q31.2844 469.015 40.2919 469.015 Q49.2675 469.015 54.4874 464.909 Q59.7073 460.771 59.7073 453.769 Q59.7073 446.767 54.4874 442.693 Q49.2675 438.587 40.2919 438.587 Q31.2844 438.587 26.0645 442.693 Q20.8447 446.767 20.8447 453.769 M63.1448 444.762 L72.4069 436.295 L72.4069 444.061 L64.7999 451.095 Q64.8635 452.146 64.8954 452.719 Q64.9272 453.26 64.9272 453.769 Q64.9272 463.795 58.2432 469.811 Q51.5274 475.794 40.2919 475.794 Q29.0246 475.794 22.3406 469.811 Q15.6248 463.795 15.6248 453.769 Q15.6248 443.775 22.3406 437.791 Q29.0246 431.807 40.2919 431.807 Q48.5673 431.807 54.4556 435.149 Q60.3439 438.46 63.1448 444.762 Z" fill="#000000" fill-rule="evenodd" fill-opacity="1"></path><path clip-path="url(#clip910)" d="M49.9359 422.609 L28.3562 422.609 L28.3562 416.752 L49.7131 416.752 Q54.7739 416.752 57.3202 414.779 Q59.8346 412.806 59.8346 408.859 Q59.8346 404.117 56.8109 401.379 Q53.7872 398.61 48.5673 398.61 L28.3562 398.61 L28.3562 392.754 L64.0042 392.754 L64.0042 398.61 L58.5296 398.61 Q61.7762 400.743 63.3676 403.575 Q64.9272 406.376 64.9272 410.1 Q64.9272 416.243 61.1078 419.426 Q57.2883 422.609 49.9359 422.609 M27.4968 407.872 L27.4968 407.872 Z" fill="#000000" fill-rule="evenodd" fill-opacity="1"></path><path clip-path="url(#clip910)" d="M46.0847 364.49 Q46.0847 371.588 47.7079 374.325 Q49.3312 377.062 53.2461 377.062 Q56.3653 377.062 58.2114 375.025 Q60.0256 372.956 60.0256 369.423 Q60.0256 364.554 56.5881 361.625 Q53.1188 358.665 47.3897 358.665 L46.0847 358.665 L46.0847 364.49 M43.6657 352.809 L64.0042 352.809 L64.0042 358.665 L58.5933 358.665 Q61.8398 360.671 63.3994 363.662 Q64.9272 366.654 64.9272 370.983 Q64.9272 376.458 61.8716 379.704 Q58.7843 382.919 53.6281 382.919 Q47.6125 382.919 44.5569 378.908 Q41.5014 374.866 41.5014 366.877 L41.5014 358.665 L40.9285 358.665 Q36.8862 358.665 34.6901 361.339 Q32.4621 363.981 32.4621 368.787 Q32.4621 371.842 33.1941 374.739 Q33.9262 377.635 35.3903 380.309 L29.9795 380.309 Q28.7381 377.094 28.1334 374.07 Q27.4968 371.047 27.4968 368.182 Q27.4968 360.448 31.5072 356.628 Q35.5176 352.809 43.6657 352.809 Z" fill="#000000" fill-rule="evenodd" fill-opacity="1"></path><path clip-path="url(#clip910)" d="M42.4881 311.114 L64.0042 311.114 L64.0042 316.97 L42.679 316.97 Q37.6183 316.97 35.1038 318.943 Q32.5894 320.917 32.5894 324.863 Q32.5894 329.606 35.6131 332.343 Q38.6368 335.08 43.8567 335.08 L64.0042 335.08 L64.0042 340.969 L28.3562 340.969 L28.3562 335.08 L33.8944 335.08 Q30.6797 332.98 29.0883 330.147 Q27.4968 327.282 27.4968 323.559 Q27.4968 317.416 31.3163 314.265 Q35.1038 311.114 42.4881 311.114 Z" fill="#000000" fill-rule="evenodd" fill-opacity="1"></path><path clip-path="url(#clip910)" d="M18.2347 293.64 L28.3562 293.64 L28.3562 281.577 L32.9077 281.577 L32.9077 293.64 L52.2594 293.64 Q56.6199 293.64 57.8613 292.462 Q59.1026 291.253 59.1026 287.592 L59.1026 281.577 L64.0042 281.577 L64.0042 287.592 Q64.0042 294.372 61.4897 296.95 Q58.9434 299.528 52.2594 299.528 L32.9077 299.528 L32.9077 303.825 L28.3562 303.825 L28.3562 299.528 L18.2347 299.528 L18.2347 293.64 Z" fill="#000000" fill-rule="evenodd" fill-opacity="1"></path><path clip-path="url(#clip910)" d="M28.3562 273.874 L28.3562 268.018 L64.0042 268.018 L64.0042 273.874 L28.3562 273.874 M14.479 273.874 L14.479 268.018 L21.895 268.018 L21.895 273.874 L14.479 273.874 Z" fill="#000000" fill-rule="evenodd" fill-opacity="1"></path><path clip-path="url(#clip910)" d="M18.2347 249.971 L28.3562 249.971 L28.3562 237.908 L32.9077 237.908 L32.9077 249.971 L52.2594 249.971 Q56.6199 249.971 57.8613 248.793 Q59.1026 247.584 59.1026 243.924 L59.1026 237.908 L64.0042 237.908 L64.0042 243.924 Q64.0042 250.703 61.4897 253.281 Q58.9434 255.859 52.2594 255.859 L32.9077 255.859 L32.9077 260.156 L28.3562 260.156 L28.3562 255.859 L18.2347 255.859 L18.2347 249.971 Z" fill="#000000" fill-rule="evenodd" fill-opacity="1"></path><path clip-path="url(#clip910)" d="M67.3143 215.373 Q73.68 217.856 75.6216 220.211 Q77.5631 222.567 77.5631 226.513 L77.5631 231.192 L72.6615 231.192 L72.6615 227.755 Q72.6615 225.336 71.5157 223.999 Q70.3699 222.662 66.1048 221.039 L63.4312 219.988 L28.3562 234.407 L28.3562 228.2 L56.238 217.06 L28.3562 205.92 L28.3562 199.714 L67.3143 215.373 Z" fill="#000000" fill-rule="evenodd" fill-opacity="1"></path><path clip-path="url(#clip910)" d="M900.069 18.8205 L900.069 65.8515 L909.953 65.8515 Q922.47 65.8515 928.263 60.1802 Q934.097 54.509 934.097 42.2752 Q934.097 30.1225 928.263 24.4918 Q922.47 18.8205 909.953 18.8205 L900.069 18.8205 M891.886 12.096 L908.697 12.096 Q926.278 12.096 934.502 19.4281 Q942.725 26.7198 942.725 42.2752 Q942.725 57.9117 934.461 65.2439 Q926.197 72.576 908.697 72.576 L891.886 72.576 L891.886 12.096 Z" fill="#000000" fill-rule="evenodd" fill-opacity="1"></path><path clip-path="url(#clip910)" d="M955.445 27.2059 L962.898 27.2059 L962.898 72.576 L955.445 72.576 L955.445 27.2059 M955.445 9.54393 L962.898 9.54393 L962.898 18.9825 L955.445 18.9825 L955.445 9.54393 Z" fill="#000000" fill-rule="evenodd" fill-opacity="1"></path><path clip-path="url(#clip910)" d="M1007.42 28.5427 L1007.42 35.5912 Q1004.26 33.9709 1000.86 33.1607 Q997.453 32.3505 993.807 32.3505 Q988.257 32.3505 985.462 34.0519 Q982.707 35.7533 982.707 39.156 Q982.707 41.7486 984.692 43.2475 Q986.677 44.7058 992.673 46.0426 L995.225 46.6097 Q1003.16 48.3111 1006.49 51.4303 Q1009.85 54.509 1009.85 60.0587 Q1009.85 66.3781 1004.83 70.0644 Q999.843 73.7508 991.093 73.7508 Q987.447 73.7508 983.477 73.0216 Q979.548 72.3329 975.173 70.9151 L975.173 63.2184 Q979.305 65.3654 983.315 66.4591 Q987.325 67.5124 991.255 67.5124 Q996.521 67.5124 999.357 65.73 Q1002.19 63.9071 1002.19 60.6258 Q1002.19 57.5877 1000.13 55.9673 Q998.101 54.3469 991.174 52.8481 L988.581 52.2405 Q981.654 50.7821 978.575 47.7845 Q975.497 44.7463 975.497 39.4801 Q975.497 33.0797 980.034 29.5959 Q984.571 26.1121 992.916 26.1121 Q997.048 26.1121 1000.69 26.7198 Q1004.34 27.3274 1007.42 28.5427 Z" fill="#000000" fill-rule="evenodd" fill-opacity="1"></path><path clip-path="url(#clip910)" d="M1029.09 14.324 L1029.09 27.2059 L1044.44 27.2059 L1044.44 32.9987 L1029.09 32.9987 L1029.09 57.6282 Q1029.09 63.1779 1030.59 64.7578 Q1032.13 66.3376 1036.79 66.3376 L1044.44 66.3376 L1044.44 72.576 L1036.79 72.576 Q1028.16 72.576 1024.88 69.3758 Q1021.6 66.1351 1021.6 57.6282 L1021.6 32.9987 L1016.13 32.9987 L1016.13 27.2059 L1021.6 27.2059 L1021.6 14.324 L1029.09 14.324 Z" fill="#000000" fill-rule="evenodd" fill-opacity="1"></path><path clip-path="url(#clip910)" d="M1080.54 34.1734 Q1079.28 33.4443 1077.78 33.1202 Q1076.32 32.7556 1074.54 32.7556 Q1068.22 32.7556 1064.82 36.8875 Q1061.46 40.9789 1061.46 48.6757 L1061.46 72.576 L1053.96 72.576 L1053.96 27.2059 L1061.46 27.2059 L1061.46 34.2544 Q1063.81 30.1225 1067.57 28.1376 Q1071.34 26.1121 1076.73 26.1121 Q1077.5 26.1121 1078.43 26.2337 Q1079.36 26.3147 1080.5 26.5172 L1080.54 34.1734 Z" fill="#000000" fill-rule="evenodd" fill-opacity="1"></path><path clip-path="url(#clip910)" d="M1088.35 27.2059 L1095.81 27.2059 L1095.81 72.576 L1088.35 72.576 L1088.35 27.2059 M1088.35 9.54393 L1095.81 9.54393 L1095.81 18.9825 L1088.35 18.9825 L1088.35 9.54393 Z" fill="#000000" fill-rule="evenodd" fill-opacity="1"></path><path clip-path="url(#clip910)" d="M1143.97 49.9314 Q1143.97 41.7081 1140.57 37.0496 Q1137.21 32.3505 1131.29 32.3505 Q1125.38 32.3505 1121.98 37.0496 Q1118.62 41.7081 1118.62 49.9314 Q1118.62 58.1548 1121.98 62.8538 Q1125.38 67.5124 1131.29 67.5124 Q1137.21 67.5124 1140.57 62.8538 Q1143.97 58.1548 1143.97 49.9314 M1118.62 34.0924 Q1120.96 30.0415 1124.53 28.0971 Q1128.13 26.1121 1133.12 26.1121 Q1141.38 26.1121 1146.53 32.6746 Q1151.71 39.2371 1151.71 49.9314 Q1151.71 60.6258 1146.53 67.1883 Q1141.38 73.7508 1133.12 73.7508 Q1128.13 73.7508 1124.53 71.8063 Q1120.96 69.8214 1118.62 65.7705 L1118.62 72.576 L1111.12 72.576 L1111.12 9.54393 L1118.62 9.54393 L1118.62 34.0924 Z" fill="#000000" fill-rule="evenodd" fill-opacity="1"></path><path clip-path="url(#clip910)" d="M1163.3 54.671 L1163.3 27.2059 L1170.75 27.2059 L1170.75 54.3874 Q1170.75 60.8284 1173.26 64.0691 Q1175.77 67.2693 1180.8 67.2693 Q1186.83 67.2693 1190.32 63.421 Q1193.84 59.5726 1193.84 52.9291 L1193.84 27.2059 L1201.29 27.2059 L1201.29 72.576 L1193.84 72.576 L1193.84 65.6084 Q1191.13 69.7404 1187.52 71.7658 Q1183.96 73.7508 1179.22 73.7508 Q1171.4 73.7508 1167.35 68.8897 Q1163.3 64.0286 1163.3 54.671 M1182.05 26.1121 L1182.05 26.1121 Z" fill="#000000" fill-rule="evenodd" fill-opacity="1"></path><path clip-path="url(#clip910)" d="M1224.02 14.324 L1224.02 27.2059 L1239.37 27.2059 L1239.37 32.9987 L1224.02 32.9987 L1224.02 57.6282 Q1224.02 63.1779 1225.52 64.7578 Q1227.06 66.3376 1231.72 66.3376 L1239.37 66.3376 L1239.37 72.576 L1231.72 72.576 Q1223.09 72.576 1219.81 69.3758 Q1216.53 66.1351 1216.53 57.6282 L1216.53 32.9987 L1211.06 32.9987 L1211.06 27.2059 L1216.53 27.2059 L1216.53 14.324 L1224.02 14.324 Z" fill="#000000" fill-rule="evenodd" fill-opacity="1"></path><path clip-path="url(#clip910)" d="M1249.18 27.2059 L1256.63 27.2059 L1256.63 72.576 L1249.18 72.576 L1249.18 27.2059 M1249.18 9.54393 L1256.63 9.54393 L1256.63 18.9825 L1249.18 18.9825 L1249.18 9.54393 Z" fill="#000000" fill-rule="evenodd" fill-opacity="1"></path><path clip-path="url(#clip910)" d="M1289.81 32.4315 Q1283.81 32.4315 1280.33 37.1306 Q1276.84 41.7891 1276.84 49.9314 Q1276.84 58.0738 1280.29 62.7728 Q1283.77 67.4314 1289.81 67.4314 Q1295.76 67.4314 1299.25 62.7323 Q1302.73 58.0333 1302.73 49.9314 Q1302.73 41.8701 1299.25 37.1711 Q1295.76 32.4315 1289.81 32.4315 M1289.81 26.1121 Q1299.53 26.1121 1305.08 32.4315 Q1310.63 38.7509 1310.63 49.9314 Q1310.63 61.0714 1305.08 67.4314 Q1299.53 73.7508 1289.81 73.7508 Q1280.04 73.7508 1274.49 67.4314 Q1268.98 61.0714 1268.98 49.9314 Q1268.98 38.7509 1274.49 32.4315 Q1280.04 26.1121 1289.81 26.1121 Z" fill="#000000" fill-rule="evenodd" fill-opacity="1"></path><path clip-path="url(#clip910)" d="M1360.7 45.1919 L1360.7 72.576 L1353.24 72.576 L1353.24 45.4349 Q1353.24 38.994 1350.73 35.7938 Q1348.22 32.5936 1343.2 32.5936 Q1337.16 32.5936 1333.68 36.4419 Q1330.19 40.2903 1330.19 46.9338 L1330.19 72.576 L1322.7 72.576 L1322.7 27.2059 L1330.19 27.2059 L1330.19 34.2544 Q1332.87 30.163 1336.47 28.1376 Q1340.12 26.1121 1344.86 26.1121 Q1352.68 26.1121 1356.69 30.9732 Q1360.7 35.7938 1360.7 45.1919 Z" fill="#000000" fill-rule="evenodd" fill-opacity="1"></path><path clip-path="url(#clip910)" d="M1419.52 32.4315 Q1413.52 32.4315 1410.04 37.1306 Q1406.55 41.7891 1406.55 49.9314 Q1406.55 58.0738 1410 62.7728 Q1413.48 67.4314 1419.52 67.4314 Q1425.47 67.4314 1428.95 62.7323 Q1432.44 58.0333 1432.44 49.9314 Q1432.44 41.8701 1428.95 37.1711 Q1425.47 32.4315 1419.52 32.4315 M1419.52 26.1121 Q1429.24 26.1121 1434.79 32.4315 Q1440.34 38.7509 1440.34 49.9314 Q1440.34 61.0714 1434.79 67.4314 Q1429.24 73.7508 1419.52 73.7508 Q1409.75 73.7508 1404.2 67.4314 Q1398.69 61.0714 1398.69 49.9314 Q1398.69 38.7509 1404.2 32.4315 Q1409.75 26.1121 1419.52 26.1121 Z" fill="#000000" fill-rule="evenodd" fill-opacity="1"></path><path clip-path="url(#clip910)" d="M1475.66 9.54393 L1475.66 15.7418 L1468.53 15.7418 Q1464.52 15.7418 1462.94 17.3622 Q1461.4 18.9825 1461.4 23.1955 L1461.4 27.2059 L1473.68 27.2059 L1473.68 32.9987 L1461.4 32.9987 L1461.4 72.576 L1453.91 72.576 L1453.91 32.9987 L1446.78 32.9987 L1446.78 27.2059 L1453.91 27.2059 L1453.91 24.0462 Q1453.91 16.471 1457.43 13.0277 Q1460.96 9.54393 1468.61 9.54393 L1475.66 9.54393 Z" fill="#000000" fill-rule="evenodd" fill-opacity="1"></path><path clip-path="url(#clip910)" d="M1508.27 9.54393 L1515.73 9.54393 L1515.73 72.576 L1508.27 72.576 L1508.27 9.54393 Z" fill="#000000" fill-rule="evenodd" fill-opacity="1"></path><path clip-path="url(#clip910)" d="M1569.04 45.1919 L1569.04 72.576 L1561.58 72.576 L1561.58 45.4349 Q1561.58 38.994 1559.07 35.7938 Q1556.56 32.5936 1551.54 32.5936 Q1545.5 32.5936 1542.02 36.4419 Q1538.53 40.2903 1538.53 46.9338 L1538.53 72.576 L1531.04 72.576 L1531.04 27.2059 L1538.53 27.2059 L1538.53 34.2544 Q1541.21 30.163 1544.81 28.1376 Q1548.46 26.1121 1553.2 26.1121 Q1561.01 26.1121 1565.02 30.9732 Q1569.04 35.7938 1569.04 45.1919 Z" fill="#000000" fill-rule="evenodd" fill-opacity="1"></path><path clip-path="url(#clip910)" d="M1635.15 17.6457 Q1626.23 17.6457 1620.97 24.2892 Q1615.74 30.9327 1615.74 42.3968 Q1615.74 53.8203 1620.97 60.4638 Q1626.23 67.1073 1635.15 67.1073 Q1644.06 67.1073 1649.24 60.4638 Q1654.47 53.8203 1654.47 42.3968 Q1654.47 30.9327 1649.24 24.2892 Q1644.06 17.6457 1635.15 17.6457 M1646.61 71.4823 L1657.39 83.2704 L1647.5 83.2704 L1638.55 73.5887 Q1637.21 73.6697 1636.48 73.7103 Q1635.79 73.7508 1635.15 73.7508 Q1622.39 73.7508 1614.73 65.2439 Q1607.11 56.6965 1607.11 42.3968 Q1607.11 28.0566 1614.73 19.5497 Q1622.39 11.0023 1635.15 11.0023 Q1647.87 11.0023 1655.48 19.5497 Q1663.1 28.0566 1663.1 42.3968 Q1663.1 52.9291 1658.84 60.4233 Q1654.63 67.9175 1646.61 71.4823 Z" fill="#000000" fill-rule="evenodd" fill-opacity="1"></path><path clip-path="url(#clip912)" d="
M320.51 558.702 L320.51 670.515 L593.934 670.515 L593.934 558.702 L320.51 558.702 L320.51 558.702  Z
  " fill="#009af9" fill-rule="evenodd" fill-opacity="1"></path>
<polyline clip-path="url(#clip912)" style="stroke:#000000; stroke-linecap:butt; stroke-linejoin:round; stroke-width:4; stroke-opacity:1; fill:none" points="
  320.51,558.702 320.51,670.515 593.934,670.515 593.934,558.702 320.51,558.702 
  "></polyline>
<path clip-path="url(#clip912)" d="
M593.934 502.796 L593.934 670.515 L867.357 670.515 L867.357 502.796 L593.934 502.796 L593.934 502.796  Z
  " fill="#009af9" fill-rule="evenodd" fill-opacity="1"></path>
<polyline clip-path="url(#clip912)" style="stroke:#000000; stroke-linecap:butt; stroke-linejoin:round; stroke-width:4; stroke-opacity:1; fill:none" points="
  593.934,502.796 593.934,670.515 867.357,670.515 867.357,502.796 593.934,502.796 
  "></polyline>
<path clip-path="url(#clip912)" d="
M867.357 139.405 L867.357 670.515 L1140.78 670.515 L1140.78 139.405 L867.357 139.405 L867.357 139.405  Z
  " fill="#009af9" fill-rule="evenodd" fill-opacity="1"></path>
<polyline clip-path="url(#clip912)" style="stroke:#000000; stroke-linecap:butt; stroke-linejoin:round; stroke-width:4; stroke-opacity:1; fill:none" points="
  867.357,139.405 867.357,670.515 1140.78,670.515 1140.78,139.405 867.357,139.405 
  "></polyline>
<path clip-path="url(#clip912)" d="
M1140.78 363.03 L1140.78 670.515 L1414.2 670.515 L1414.2 363.03 L1140.78 363.03 L1140.78 363.03  Z
  " fill="#009af9" fill-rule="evenodd" fill-opacity="1"></path>
<polyline clip-path="url(#clip912)" style="stroke:#000000; stroke-linecap:butt; stroke-linejoin:round; stroke-width:4; stroke-opacity:1; fill:none" points="
  1140.78,363.03 1140.78,670.515 1414.2,670.515 1414.2,363.03 1140.78,363.03 
  "></polyline>
<path clip-path="url(#clip912)" d="
M1414.2 502.796 L1414.2 670.515 L1687.63 670.515 L1687.63 502.796 L1414.2 502.796 L1414.2 502.796  Z
  " fill="#009af9" fill-rule="evenodd" fill-opacity="1"></path>
<polyline clip-path="url(#clip912)" style="stroke:#000000; stroke-linecap:butt; stroke-linejoin:round; stroke-width:4; stroke-opacity:1; fill:none" points="
  1414.2,502.796 1414.2,670.515 1687.63,670.515 1687.63,502.796 1414.2,502.796 
  "></polyline>
<path clip-path="url(#clip912)" d="
M1687.63 586.655 L1687.63 670.515 L1961.05 670.515 L1961.05 586.655 L1687.63 586.655 L1687.63 586.655  Z
  " fill="#009af9" fill-rule="evenodd" fill-opacity="1"></path>
<polyline clip-path="url(#clip912)" style="stroke:#000000; stroke-linecap:butt; stroke-linejoin:round; stroke-width:4; stroke-opacity:1; fill:none" points="
  1687.63,586.655 1687.63,670.515 1961.05,670.515 1961.05,586.655 1687.63,586.655 
  "></polyline>
<path clip-path="url(#clip912)" d="
M1961.05 642.561 L1961.05 670.515 L2234.47 670.515 L2234.47 642.561 L1961.05 642.561 L1961.05 642.561  Z
  " fill="#009af9" fill-rule="evenodd" fill-opacity="1"></path>
<polyline clip-path="url(#clip912)" style="stroke:#000000; stroke-linecap:butt; stroke-linejoin:round; stroke-width:4; stroke-opacity:1; fill:none" points="
  1961.05,642.561 1961.05,670.515 2234.47,670.515 2234.47,642.561 1961.05,642.561 
  "></polyline>
<circle clip-path="url(#clip912)" style="fill:#009af9; stroke:none; fill-opacity:0" cx="457.222" cy="558.702" r="2"></circle>
<circle clip-path="url(#clip912)" style="fill:#009af9; stroke:none; fill-opacity:0" cx="730.645" cy="502.796" r="2"></circle>
<circle clip-path="url(#clip912)" style="fill:#009af9; stroke:none; fill-opacity:0" cx="1004.07" cy="139.405" r="2"></circle>
<circle clip-path="url(#clip912)" style="fill:#009af9; stroke:none; fill-opacity:0" cx="1277.49" cy="363.03" r="2"></circle>
<circle clip-path="url(#clip912)" style="fill:#009af9; stroke:none; fill-opacity:0" cx="1550.91" cy="502.796" r="2"></circle>
<circle clip-path="url(#clip912)" style="fill:#009af9; stroke:none; fill-opacity:0" cx="1824.34" cy="586.655" r="2"></circle>
<circle clip-path="url(#clip912)" style="fill:#009af9; stroke:none; fill-opacity:0" cx="2097.76" cy="642.561" r="2"></circle>
<path clip-path="url(#clip910)" d="
M1989.69 245.918 L2281.07 245.918 L2281.07 142.238 L1989.69 142.238  Z
  " fill="#ffffff" fill-rule="evenodd" fill-opacity="1"></path>
<polyline clip-path="url(#clip910)" style="stroke:#000000; stroke-linecap:butt; stroke-linejoin:round; stroke-width:4; stroke-opacity:1; fill:none" points="
  1989.69,245.918 2281.07,245.918 2281.07,142.238 1989.69,142.238 1989.69,245.918 
  "></polyline>
<path clip-path="url(#clip910)" d="
M2013.59 214.814 L2156.96 214.814 L2156.96 173.342 L2013.59 173.342 L2013.59 214.814  Z
  " fill="#009af9" fill-rule="evenodd" fill-opacity="1"></path>
<polyline clip-path="url(#clip910)" style="stroke:#000000; stroke-linecap:butt; stroke-linejoin:round; stroke-width:4; stroke-opacity:1; fill:none" points="
  2013.59,214.814 2156.96,214.814 2156.96,173.342 2013.59,173.342 2013.59,214.814 
  "></polyline>
<path clip-path="url(#clip910)" d="M2194.69 213.765 Q2192.89 218.395 2191.18 219.807 Q2189.46 221.219 2186.59 221.219 L2183.19 221.219 L2183.19 217.654 L2185.69 217.654 Q2187.45 217.654 2188.42 216.821 Q2189.39 215.988 2190.57 212.886 L2191.34 210.941 L2180.85 185.432 L2185.37 185.432 L2193.47 205.71 L2201.57 185.432 L2206.08 185.432 L2194.69 213.765 Z" fill="#000000" fill-rule="evenodd" fill-opacity="1"></path><path clip-path="url(#clip910)" d="M2213.37 207.423 L2221.01 207.423 L2221.01 181.057 L2212.7 182.724 L2212.7 178.465 L2220.97 176.798 L2225.64 176.798 L2225.64 207.423 L2233.28 207.423 L2233.28 211.358 L2213.37 211.358 L2213.37 207.423 Z" fill="#000000" fill-rule="evenodd" fill-opacity="1"></path><path clip-path="url(#clip910)" d="
M202.227 1486.45 L2352.76 1486.45 L2352.76 923.472 L202.227 923.472  Z
  " fill="#ffffff" fill-rule="evenodd" fill-opacity="1"></path>
<defs>
  <clipPath id="clip913">
    <rect x="202" y="923" width="2152" height="564"></rect>
  </clipPath>
</defs>
<polyline clip-path="url(#clip913)" style="stroke:#000000; stroke-linecap:butt; stroke-linejoin:round; stroke-width:2; stroke-opacity:0.1; fill:none" points="
  320.51,1486.45 320.51,923.472 
  "></polyline>
<polyline clip-path="url(#clip913)" style="stroke:#000000; stroke-linecap:butt; stroke-linejoin:round; stroke-width:2; stroke-opacity:0.1; fill:none" points="
  799.001,1486.45 799.001,923.472 
  "></polyline>
<polyline clip-path="url(#clip913)" style="stroke:#000000; stroke-linecap:butt; stroke-linejoin:round; stroke-width:2; stroke-opacity:0.1; fill:none" points="
  1277.49,1486.45 1277.49,923.472 
  "></polyline>
<polyline clip-path="url(#clip913)" style="stroke:#000000; stroke-linecap:butt; stroke-linejoin:round; stroke-width:2; stroke-opacity:0.1; fill:none" points="
  1755.98,1486.45 1755.98,923.472 
  "></polyline>
<polyline clip-path="url(#clip913)" style="stroke:#000000; stroke-linecap:butt; stroke-linejoin:round; stroke-width:2; stroke-opacity:0.1; fill:none" points="
  2234.47,1486.45 2234.47,923.472 
  "></polyline>
<polyline clip-path="url(#clip910)" style="stroke:#000000; stroke-linecap:butt; stroke-linejoin:round; stroke-width:4; stroke-opacity:1; fill:none" points="
  202.227,1486.45 2352.76,1486.45 
  "></polyline>
<polyline clip-path="url(#clip910)" style="stroke:#000000; stroke-linecap:butt; stroke-linejoin:round; stroke-width:4; stroke-opacity:1; fill:none" points="
  320.51,1486.45 320.51,1467.55 
  "></polyline>
<polyline clip-path="url(#clip910)" style="stroke:#000000; stroke-linecap:butt; stroke-linejoin:round; stroke-width:4; stroke-opacity:1; fill:none" points="
  799.001,1486.45 799.001,1467.55 
  "></polyline>
<polyline clip-path="url(#clip910)" style="stroke:#000000; stroke-linecap:butt; stroke-linejoin:round; stroke-width:4; stroke-opacity:1; fill:none" points="
  1277.49,1486.45 1277.49,1467.55 
  "></polyline>
<polyline clip-path="url(#clip910)" style="stroke:#000000; stroke-linecap:butt; stroke-linejoin:round; stroke-width:4; stroke-opacity:1; fill:none" points="
  1755.98,1486.45 1755.98,1467.55 
  "></polyline>
<polyline clip-path="url(#clip910)" style="stroke:#000000; stroke-linecap:butt; stroke-linejoin:round; stroke-width:4; stroke-opacity:1; fill:none" points="
  2234.47,1486.45 2234.47,1467.55 
  "></polyline>
<path clip-path="url(#clip910)" d="M290.453 1532.02 L320.128 1532.02 L320.128 1535.95 L290.453 1535.95 L290.453 1532.02 Z" fill="#000000" fill-rule="evenodd" fill-opacity="1"></path><path clip-path="url(#clip910)" d="M334.249 1544.91 L350.568 1544.91 L350.568 1548.85 L328.624 1548.85 L328.624 1544.91 Q331.286 1542.16 335.869 1537.53 Q340.476 1532.88 341.656 1531.53 Q343.901 1529.01 344.781 1527.27 Q345.684 1525.51 345.684 1523.82 Q345.684 1521.07 343.739 1519.33 Q341.818 1517.6 338.716 1517.6 Q336.517 1517.6 334.064 1518.36 Q331.633 1519.13 328.855 1520.68 L328.855 1515.95 Q331.679 1514.82 334.133 1514.24 Q336.587 1513.66 338.624 1513.66 Q343.994 1513.66 347.188 1516.35 Q350.383 1519.03 350.383 1523.52 Q350.383 1525.65 349.573 1527.57 Q348.786 1529.47 346.679 1532.07 Q346.101 1532.74 342.999 1535.95 Q339.897 1539.15 334.249 1544.91 Z" fill="#000000" fill-rule="evenodd" fill-opacity="1"></path><path clip-path="url(#clip910)" d="M768.758 1532.02 L798.434 1532.02 L798.434 1535.95 L768.758 1535.95 L768.758 1532.02 Z" fill="#000000" fill-rule="evenodd" fill-opacity="1"></path><path clip-path="url(#clip910)" d="M809.337 1544.91 L816.975 1544.91 L816.975 1518.55 L808.665 1520.21 L808.665 1515.95 L816.929 1514.29 L821.605 1514.29 L821.605 1544.91 L829.244 1544.91 L829.244 1548.85 L809.337 1548.85 L809.337 1544.91 Z" fill="#000000" fill-rule="evenodd" fill-opacity="1"></path><path clip-path="url(#clip910)" d="M1277.49 1517.37 Q1273.88 1517.37 1272.05 1520.93 Q1270.25 1524.47 1270.25 1531.6 Q1270.25 1538.71 1272.05 1542.27 Q1273.88 1545.82 1277.49 1545.82 Q1281.13 1545.82 1282.93 1542.27 Q1284.76 1538.71 1284.76 1531.6 Q1284.76 1524.47 1282.93 1520.93 Q1281.13 1517.37 1277.49 1517.37 M1277.49 1513.66 Q1283.3 1513.66 1286.36 1518.27 Q1289.44 1522.85 1289.44 1531.6 Q1289.44 1540.33 1286.36 1544.94 Q1283.3 1549.52 1277.49 1549.52 Q1271.68 1549.52 1268.6 1544.94 Q1265.55 1540.33 1265.55 1531.6 Q1265.55 1522.85 1268.6 1518.27 Q1271.68 1513.66 1277.49 1513.66 Z" fill="#000000" fill-rule="evenodd" fill-opacity="1"></path><path clip-path="url(#clip910)" d="M1746.36 1544.91 L1754 1544.91 L1754 1518.55 L1745.69 1520.21 L1745.69 1515.95 L1753.96 1514.29 L1758.63 1514.29 L1758.63 1544.91 L1766.27 1544.91 L1766.27 1548.85 L1746.36 1548.85 L1746.36 1544.91 Z" fill="#000000" fill-rule="evenodd" fill-opacity="1"></path><path clip-path="url(#clip910)" d="M2229.13 1544.91 L2245.45 1544.91 L2245.45 1548.85 L2223.5 1548.85 L2223.5 1544.91 Q2226.16 1542.16 2230.75 1537.53 Q2235.35 1532.88 2236.53 1531.53 Q2238.78 1529.01 2239.66 1527.27 Q2240.56 1525.51 2240.56 1523.82 Q2240.56 1521.07 2238.62 1519.33 Q2236.7 1517.6 2233.59 1517.6 Q2231.39 1517.6 2228.94 1518.36 Q2226.51 1519.13 2223.73 1520.68 L2223.73 1515.95 Q2226.56 1514.82 2229.01 1514.24 Q2231.46 1513.66 2233.5 1513.66 Q2238.87 1513.66 2242.07 1516.35 Q2245.26 1519.03 2245.26 1523.52 Q2245.26 1525.65 2244.45 1527.57 Q2243.66 1529.47 2241.56 1532.07 Q2240.98 1532.74 2237.88 1535.95 Q2234.77 1539.15 2229.13 1544.91 Z" fill="#000000" fill-rule="evenodd" fill-opacity="1"></path><polyline clip-path="url(#clip913)" style="stroke:#000000; stroke-linecap:butt; stroke-linejoin:round; stroke-width:2; stroke-opacity:0.1; fill:none" points="
  202.227,1470.51 2352.76,1470.51 
  "></polyline>
<polyline clip-path="url(#clip913)" style="stroke:#000000; stroke-linecap:butt; stroke-linejoin:round; stroke-width:2; stroke-opacity:0.1; fill:none" points="
  202.227,1314.31 2352.76,1314.31 
  "></polyline>
<polyline clip-path="url(#clip913)" style="stroke:#000000; stroke-linecap:butt; stroke-linejoin:round; stroke-width:2; stroke-opacity:0.1; fill:none" points="
  202.227,1158.1 2352.76,1158.1 
  "></polyline>
<polyline clip-path="url(#clip913)" style="stroke:#000000; stroke-linecap:butt; stroke-linejoin:round; stroke-width:2; stroke-opacity:0.1; fill:none" points="
  202.227,1001.89 2352.76,1001.89 
  "></polyline>
<polyline clip-path="url(#clip910)" style="stroke:#000000; stroke-linecap:butt; stroke-linejoin:round; stroke-width:4; stroke-opacity:1; fill:none" points="
  202.227,1486.45 202.227,923.472 
  "></polyline>
<polyline clip-path="url(#clip910)" style="stroke:#000000; stroke-linecap:butt; stroke-linejoin:round; stroke-width:4; stroke-opacity:1; fill:none" points="
  202.227,1470.51 221.125,1470.51 
  "></polyline>
<polyline clip-path="url(#clip910)" style="stroke:#000000; stroke-linecap:butt; stroke-linejoin:round; stroke-width:4; stroke-opacity:1; fill:none" points="
  202.227,1314.31 221.125,1314.31 
  "></polyline>
<polyline clip-path="url(#clip910)" style="stroke:#000000; stroke-linecap:butt; stroke-linejoin:round; stroke-width:4; stroke-opacity:1; fill:none" points="
  202.227,1158.1 221.125,1158.1 
  "></polyline>
<polyline clip-path="url(#clip910)" style="stroke:#000000; stroke-linecap:butt; stroke-linejoin:round; stroke-width:4; stroke-opacity:1; fill:none" points="
  202.227,1001.89 221.125,1001.89 
  "></polyline>
<path clip-path="url(#clip910)" d="M154.283 1456.31 Q150.672 1456.31 148.843 1459.88 Q147.038 1463.42 147.038 1470.55 Q147.038 1477.66 148.843 1481.22 Q150.672 1484.76 154.283 1484.76 Q157.917 1484.76 159.723 1481.22 Q161.552 1477.66 161.552 1470.55 Q161.552 1463.42 159.723 1459.88 Q157.917 1456.31 154.283 1456.31 M154.283 1452.61 Q160.093 1452.61 163.149 1457.22 Q166.227 1461.8 166.227 1470.55 Q166.227 1479.28 163.149 1483.88 Q160.093 1488.47 154.283 1488.47 Q148.473 1488.47 145.394 1483.88 Q142.339 1479.28 142.339 1470.55 Q142.339 1461.8 145.394 1457.22 Q148.473 1452.61 154.283 1452.61 Z" fill="#000000" fill-rule="evenodd" fill-opacity="1"></path><path clip-path="url(#clip910)" d="M145.325 1297.03 L163.681 1297.03 L163.681 1300.96 L149.607 1300.96 L149.607 1309.43 Q150.626 1309.09 151.644 1308.92 Q152.663 1308.74 153.681 1308.74 Q159.468 1308.74 162.848 1311.91 Q166.227 1315.08 166.227 1320.5 Q166.227 1326.08 162.755 1329.18 Q159.283 1332.26 152.964 1332.26 Q150.788 1332.26 148.519 1331.89 Q146.274 1331.52 143.866 1330.78 L143.866 1326.08 Q145.95 1327.21 148.172 1327.77 Q150.394 1328.32 152.871 1328.32 Q156.876 1328.32 159.214 1326.22 Q161.552 1324.11 161.552 1320.5 Q161.552 1316.89 159.214 1314.78 Q156.876 1312.67 152.871 1312.67 Q150.996 1312.67 149.121 1313.09 Q147.269 1313.51 145.325 1314.39 L145.325 1297.03 Z" fill="#000000" fill-rule="evenodd" fill-opacity="1"></path><path clip-path="url(#clip910)" d="M114.931 1171.44 L122.57 1171.44 L122.57 1145.08 L114.26 1146.74 L114.26 1142.48 L122.524 1140.82 L127.2 1140.82 L127.2 1171.44 L134.839 1171.44 L134.839 1175.38 L114.931 1175.38 L114.931 1171.44 Z" fill="#000000" fill-rule="evenodd" fill-opacity="1"></path><path clip-path="url(#clip910)" d="M154.283 1143.9 Q150.672 1143.9 148.843 1147.46 Q147.038 1151 147.038 1158.13 Q147.038 1165.24 148.843 1168.8 Q150.672 1172.35 154.283 1172.35 Q157.917 1172.35 159.723 1168.8 Q161.552 1165.24 161.552 1158.13 Q161.552 1151 159.723 1147.46 Q157.917 1143.9 154.283 1143.9 M154.283 1140.19 Q160.093 1140.19 163.149 1144.8 Q166.227 1149.38 166.227 1158.13 Q166.227 1166.86 163.149 1171.47 Q160.093 1176.05 154.283 1176.05 Q148.473 1176.05 145.394 1171.47 Q142.339 1166.86 142.339 1158.13 Q142.339 1149.38 145.394 1144.8 Q148.473 1140.19 154.283 1140.19 Z" fill="#000000" fill-rule="evenodd" fill-opacity="1"></path><path clip-path="url(#clip910)" d="M115.927 1015.23 L123.566 1015.23 L123.566 988.868 L115.256 990.535 L115.256 986.275 L123.519 984.609 L128.195 984.609 L128.195 1015.23 L135.834 1015.23 L135.834 1019.17 L115.927 1019.17 L115.927 1015.23 Z" fill="#000000" fill-rule="evenodd" fill-opacity="1"></path><path clip-path="url(#clip910)" d="M145.325 984.609 L163.681 984.609 L163.681 988.544 L149.607 988.544 L149.607 997.016 Q150.626 996.669 151.644 996.507 Q152.663 996.322 153.681 996.322 Q159.468 996.322 162.848 999.493 Q166.227 1002.66 166.227 1008.08 Q166.227 1013.66 162.755 1016.76 Q159.283 1019.84 152.964 1019.84 Q150.788 1019.84 148.519 1019.47 Q146.274 1019.1 143.866 1018.36 L143.866 1013.66 Q145.95 1014.79 148.172 1015.35 Q150.394 1015.9 152.871 1015.9 Q156.876 1015.9 159.214 1013.8 Q161.552 1011.69 161.552 1008.08 Q161.552 1004.47 159.214 1002.36 Q156.876 1000.26 152.871 1000.26 Q150.996 1000.26 149.121 1000.67 Q147.269 1001.09 145.325 1001.97 L145.325 984.609 Z" fill="#000000" fill-rule="evenodd" fill-opacity="1"></path><path clip-path="url(#clip910)" d="M16.4842 1348.11 L16.4842 1341.68 L58.5933 1341.68 L58.5933 1318.54 L64.0042 1318.54 L64.0042 1348.11 L16.4842 1348.11 Z" fill="#000000" fill-rule="evenodd" fill-opacity="1"></path><path clip-path="url(#clip910)" d="M32.4621 1299.38 Q32.4621 1304.09 36.1542 1306.83 Q39.8145 1309.56 46.212 1309.56 Q52.6095 1309.56 56.3017 1306.86 Q59.9619 1304.12 59.9619 1299.38 Q59.9619 1294.7 56.2698 1291.96 Q52.5777 1289.23 46.212 1289.23 Q39.8781 1289.23 36.186 1291.96 Q32.4621 1294.7 32.4621 1299.38 M27.4968 1299.38 Q27.4968 1291.74 32.4621 1287.38 Q37.4273 1283.02 46.212 1283.02 Q54.9649 1283.02 59.9619 1287.38 Q64.9272 1291.74 64.9272 1299.38 Q64.9272 1307.05 59.9619 1311.41 Q54.9649 1315.74 46.212 1315.74 Q37.4273 1315.74 32.4621 1311.41 Q27.4968 1307.05 27.4968 1299.38 Z" fill="#000000" fill-rule="evenodd" fill-opacity="1"></path><path clip-path="url(#clip910)" d="M45.7664 1249.85 Q39.4007 1249.85 35.8996 1252.5 Q32.3984 1255.11 32.3984 1259.85 Q32.3984 1264.56 35.8996 1267.2 Q39.4007 1269.81 45.7664 1269.81 Q52.1003 1269.81 55.6014 1267.2 Q59.1026 1264.56 59.1026 1259.85 Q59.1026 1255.11 55.6014 1252.5 Q52.1003 1249.85 45.7664 1249.85 M59.58 1244 Q68.683 1244 73.1071 1248.04 Q77.5631 1252.08 77.5631 1260.42 Q77.5631 1263.51 77.0857 1266.25 Q76.6401 1268.98 75.6852 1271.56 L69.9879 1271.56 Q71.3884 1268.98 72.0568 1266.47 Q72.7252 1263.95 72.7252 1261.34 Q72.7252 1255.58 69.7015 1252.72 Q66.7096 1249.85 60.6303 1249.85 L57.7339 1249.85 Q60.885 1251.67 62.4446 1254.5 Q64.0042 1257.33 64.0042 1261.28 Q64.0042 1267.84 59.0071 1271.85 Q54.01 1275.86 45.7664 1275.86 Q37.491 1275.86 32.4939 1271.85 Q27.4968 1267.84 27.4968 1261.28 Q27.4968 1257.33 29.0564 1254.5 Q30.616 1251.67 33.7671 1249.85 L28.3562 1249.85 L28.3562 1244 L59.58 1244 Z" fill="#000000" fill-rule="evenodd" fill-opacity="1"></path><path clip-path="url(#clip910)" d="M21.7677 1204.53 L39.6235 1204.53 L39.6235 1196.45 Q39.6235 1191.96 37.3 1189.51 Q34.9765 1187.06 30.6797 1187.06 Q26.4147 1187.06 24.0912 1189.51 Q21.7677 1191.96 21.7677 1196.45 L21.7677 1204.53 M16.4842 1210.96 L16.4842 1196.45 Q16.4842 1188.46 20.1126 1184.38 Q23.7092 1180.28 30.6797 1180.28 Q37.7138 1180.28 41.3104 1184.38 Q44.907 1188.46 44.907 1196.45 L44.907 1204.53 L64.0042 1204.53 L64.0042 1210.96 L16.4842 1210.96 Z" fill="#000000" fill-rule="evenodd" fill-opacity="1"></path><path clip-path="url(#clip910)" d="M33.8307 1152.4 Q33.2578 1153.38 33.0032 1154.56 Q32.7167 1155.71 32.7167 1157.11 Q32.7167 1162.07 35.9632 1164.74 Q39.1779 1167.39 45.2253 1167.39 L64.0042 1167.39 L64.0042 1173.27 L28.3562 1173.27 L28.3562 1167.39 L33.8944 1167.39 Q30.6479 1165.54 29.0883 1162.58 Q27.4968 1159.62 27.4968 1155.39 Q27.4968 1154.78 27.5923 1154.05 Q27.656 1153.32 27.8151 1152.43 L33.8307 1152.4 Z" fill="#000000" fill-rule="evenodd" fill-opacity="1"></path><path clip-path="url(#clip910)" d="M28.3562 1146.25 L28.3562 1140.4 L64.0042 1140.4 L64.0042 1146.25 L28.3562 1146.25 M14.479 1146.25 L14.479 1140.4 L21.895 1140.4 L21.895 1146.25 L14.479 1146.25 Z" fill="#000000" fill-rule="evenodd" fill-opacity="1"></path><path clip-path="url(#clip910)" d="M29.7248 1102.49 L35.1993 1102.49 Q33.8307 1104.97 33.1623 1107.49 Q32.4621 1109.97 32.4621 1112.51 Q32.4621 1118.21 36.0905 1121.36 Q39.6872 1124.51 46.212 1124.51 Q52.7369 1124.51 56.3653 1121.36 Q59.9619 1118.21 59.9619 1112.51 Q59.9619 1109.97 59.2935 1107.49 Q58.5933 1104.97 57.2247 1102.49 L62.6355 1102.49 Q63.7814 1104.94 64.3543 1107.58 Q64.9272 1110.19 64.9272 1113.15 Q64.9272 1121.2 59.8664 1125.95 Q54.8057 1130.69 46.212 1130.69 Q37.491 1130.69 32.4939 1125.91 Q27.4968 1121.11 27.4968 1112.77 Q27.4968 1110.06 28.0697 1107.49 Q28.6108 1104.91 29.7248 1102.49 Z" fill="#000000" fill-rule="evenodd" fill-opacity="1"></path><path clip-path="url(#clip910)" d="M44.7161 1061.81 L47.5806 1061.81 L47.5806 1088.74 Q53.6281 1088.36 56.8109 1085.11 Q59.9619 1081.83 59.9619 1076.01 Q59.9619 1072.63 59.1344 1069.48 Q58.3069 1066.3 56.6518 1063.18 L62.1899 1063.18 Q63.5267 1066.33 64.227 1069.64 Q64.9272 1072.95 64.9272 1076.36 Q64.9272 1084.89 59.9619 1089.88 Q54.9967 1094.85 46.5303 1094.85 Q37.7774 1094.85 32.6531 1090.14 Q27.4968 1085.4 27.4968 1077.38 Q27.4968 1070.18 32.1438 1066.01 Q36.7589 1061.81 44.7161 1061.81 M42.9973 1067.67 Q38.1912 1067.73 35.3266 1070.37 Q32.4621 1072.98 32.4621 1077.31 Q32.4621 1082.21 35.2312 1085.17 Q38.0002 1088.1 43.0292 1088.55 L42.9973 1067.67 Z" fill="#000000" fill-rule="evenodd" fill-opacity="1"></path><path clip-path="url(#clip910)" d="M906.793 818.821 L906.793 865.851 L916.678 865.851 Q929.195 865.851 934.988 860.18 Q940.821 854.509 940.821 842.275 Q940.821 830.123 934.988 824.492 Q929.195 818.821 916.678 818.821 L906.793 818.821 M898.611 812.096 L915.422 812.096 Q933.003 812.096 941.226 819.428 Q949.449 826.72 949.449 842.275 Q949.449 857.912 941.186 865.244 Q932.922 872.576 915.422 872.576 L898.611 872.576 L898.611 812.096 Z" fill="#000000" fill-rule="evenodd" fill-opacity="1"></path><path clip-path="url(#clip910)" d="M962.169 827.206 L969.623 827.206 L969.623 872.576 L962.169 872.576 L962.169 827.206 M962.169 809.544 L969.623 809.544 L969.623 818.983 L962.169 818.983 L962.169 809.544 Z" fill="#000000" fill-rule="evenodd" fill-opacity="1"></path><path clip-path="url(#clip910)" d="M1014.14 828.543 L1014.14 835.591 Q1010.98 833.971 1007.58 833.161 Q1004.18 832.351 1000.53 832.351 Q994.982 832.351 992.187 834.052 Q989.432 835.753 989.432 839.156 Q989.432 841.749 991.417 843.247 Q993.402 844.706 999.397 846.043 L1001.95 846.61 Q1009.89 848.311 1013.21 851.43 Q1016.57 854.509 1016.57 860.059 Q1016.57 866.378 1011.55 870.064 Q1006.57 873.751 997.817 873.751 Q994.171 873.751 990.202 873.022 Q986.272 872.333 981.897 870.915 L981.897 863.218 Q986.029 865.365 990.04 866.459 Q994.05 867.512 997.979 867.512 Q1003.25 867.512 1006.08 865.73 Q1008.92 863.907 1008.92 860.626 Q1008.92 857.588 1006.85 855.967 Q1004.83 854.347 997.898 852.848 L995.306 852.24 Q988.379 850.782 985.3 847.784 Q982.221 844.746 982.221 839.48 Q982.221 833.08 986.758 829.596 Q991.295 826.112 999.64 826.112 Q1003.77 826.112 1007.42 826.72 Q1011.06 827.327 1014.14 828.543 Z" fill="#000000" fill-rule="evenodd" fill-opacity="1"></path><path clip-path="url(#clip910)" d="M1035.81 814.324 L1035.81 827.206 L1051.17 827.206 L1051.17 832.999 L1035.81 832.999 L1035.81 857.628 Q1035.81 863.178 1037.31 864.758 Q1038.85 866.338 1043.51 866.338 L1051.17 866.338 L1051.17 872.576 L1043.51 872.576 Q1034.88 872.576 1031.6 869.376 Q1028.32 866.135 1028.32 857.628 L1028.32 832.999 L1022.85 832.999 L1022.85 827.206 L1028.32 827.206 L1028.32 814.324 L1035.81 814.324 Z" fill="#000000" fill-rule="evenodd" fill-opacity="1"></path><path clip-path="url(#clip910)" d="M1087.26 834.173 Q1086.01 833.444 1084.51 833.12 Q1083.05 832.756 1081.27 832.756 Q1074.95 832.756 1071.54 836.888 Q1068.18 840.979 1068.18 848.676 L1068.18 872.576 L1060.69 872.576 L1060.69 827.206 L1068.18 827.206 L1068.18 834.254 Q1070.53 830.123 1074.3 828.138 Q1078.07 826.112 1083.45 826.112 Q1084.22 826.112 1085.15 826.234 Q1086.09 826.315 1087.22 826.517 L1087.26 834.173 Z" fill="#000000" fill-rule="evenodd" fill-opacity="1"></path><path clip-path="url(#clip910)" d="M1095.08 827.206 L1102.53 827.206 L1102.53 872.576 L1095.08 872.576 L1095.08 827.206 M1095.08 809.544 L1102.53 809.544 L1102.53 818.983 L1095.08 818.983 L1095.08 809.544 Z" fill="#000000" fill-rule="evenodd" fill-opacity="1"></path><path clip-path="url(#clip910)" d="M1150.7 849.931 Q1150.7 841.708 1147.3 837.05 Q1143.93 832.351 1138.02 832.351 Q1132.1 832.351 1128.7 837.05 Q1125.34 841.708 1125.34 849.931 Q1125.34 858.155 1128.7 862.854 Q1132.1 867.512 1138.02 867.512 Q1143.93 867.512 1147.3 862.854 Q1150.7 858.155 1150.7 849.931 M1125.34 834.092 Q1127.69 830.042 1131.25 828.097 Q1134.86 826.112 1139.84 826.112 Q1148.11 826.112 1153.25 832.675 Q1158.44 839.237 1158.44 849.931 Q1158.44 860.626 1153.25 867.188 Q1148.11 873.751 1139.84 873.751 Q1134.86 873.751 1131.25 871.806 Q1127.69 869.821 1125.34 865.77 L1125.34 872.576 L1117.85 872.576 L1117.85 809.544 L1125.34 809.544 L1125.34 834.092 Z" fill="#000000" fill-rule="evenodd" fill-opacity="1"></path><path clip-path="url(#clip910)" d="M1170.02 854.671 L1170.02 827.206 L1177.47 827.206 L1177.47 854.387 Q1177.47 860.828 1179.99 864.069 Q1182.5 867.269 1187.52 867.269 Q1193.56 867.269 1197.04 863.421 Q1200.57 859.573 1200.57 852.929 L1200.57 827.206 L1208.02 827.206 L1208.02 872.576 L1200.57 872.576 L1200.57 865.608 Q1197.85 869.74 1194.25 871.766 Q1190.68 873.751 1185.94 873.751 Q1178.12 873.751 1174.07 868.89 Q1170.02 864.029 1170.02 854.671 M1188.78 826.112 L1188.78 826.112 Z" fill="#000000" fill-rule="evenodd" fill-opacity="1"></path><path clip-path="url(#clip910)" d="M1230.74 814.324 L1230.74 827.206 L1246.1 827.206 L1246.1 832.999 L1230.74 832.999 L1230.74 857.628 Q1230.74 863.178 1232.24 864.758 Q1233.78 866.338 1238.44 866.338 L1246.1 866.338 L1246.1 872.576 L1238.44 872.576 Q1229.81 872.576 1226.53 869.376 Q1223.25 866.135 1223.25 857.628 L1223.25 832.999 L1217.78 832.999 L1217.78 827.206 L1223.25 827.206 L1223.25 814.324 L1230.74 814.324 Z" fill="#000000" fill-rule="evenodd" fill-opacity="1"></path><path clip-path="url(#clip910)" d="M1255.9 827.206 L1263.35 827.206 L1263.35 872.576 L1255.9 872.576 L1255.9 827.206 M1255.9 809.544 L1263.35 809.544 L1263.35 818.983 L1255.9 818.983 L1255.9 809.544 Z" fill="#000000" fill-rule="evenodd" fill-opacity="1"></path><path clip-path="url(#clip910)" d="M1296.53 832.432 Q1290.54 832.432 1287.05 837.131 Q1283.57 841.789 1283.57 849.931 Q1283.57 858.074 1287.01 862.773 Q1290.5 867.431 1296.53 867.431 Q1302.49 867.431 1305.97 862.732 Q1309.45 858.033 1309.45 849.931 Q1309.45 841.87 1305.97 837.171 Q1302.49 832.432 1296.53 832.432 M1296.53 826.112 Q1306.25 826.112 1311.8 832.432 Q1317.35 838.751 1317.35 849.931 Q1317.35 861.071 1311.8 867.431 Q1306.25 873.751 1296.53 873.751 Q1286.77 873.751 1281.22 867.431 Q1275.71 861.071 1275.71 849.931 Q1275.71 838.751 1281.22 832.432 Q1286.77 826.112 1296.53 826.112 Z" fill="#000000" fill-rule="evenodd" fill-opacity="1"></path><path clip-path="url(#clip910)" d="M1367.42 845.192 L1367.42 872.576 L1359.97 872.576 L1359.97 845.435 Q1359.97 838.994 1357.46 835.794 Q1354.94 832.594 1349.92 832.594 Q1343.89 832.594 1340.4 836.442 Q1336.92 840.29 1336.92 846.934 L1336.92 872.576 L1329.42 872.576 L1329.42 827.206 L1336.92 827.206 L1336.92 834.254 Q1339.59 830.163 1343.2 828.138 Q1346.84 826.112 1351.58 826.112 Q1359.4 826.112 1363.41 830.973 Q1367.42 835.794 1367.42 845.192 Z" fill="#000000" fill-rule="evenodd" fill-opacity="1"></path><path clip-path="url(#clip910)" d="M1426.24 832.432 Q1420.25 832.432 1416.76 837.131 Q1413.28 841.789 1413.28 849.931 Q1413.28 858.074 1416.72 862.773 Q1420.21 867.431 1426.24 867.431 Q1432.2 867.431 1435.68 862.732 Q1439.16 858.033 1439.16 849.931 Q1439.16 841.87 1435.68 837.171 Q1432.2 832.432 1426.24 832.432 M1426.24 826.112 Q1435.96 826.112 1441.51 832.432 Q1447.06 838.751 1447.06 849.931 Q1447.06 861.071 1441.51 867.431 Q1435.96 873.751 1426.24 873.751 Q1416.48 873.751 1410.93 867.431 Q1405.42 861.071 1405.42 849.931 Q1405.42 838.751 1410.93 832.432 Q1416.48 826.112 1426.24 826.112 Z" fill="#000000" fill-rule="evenodd" fill-opacity="1"></path><path clip-path="url(#clip910)" d="M1482.39 809.544 L1482.39 815.742 L1475.26 815.742 Q1471.25 815.742 1469.67 817.362 Q1468.13 818.983 1468.13 823.195 L1468.13 827.206 L1480.4 827.206 L1480.4 832.999 L1468.13 832.999 L1468.13 872.576 L1460.63 872.576 L1460.63 832.999 L1453.5 832.999 L1453.5 827.206 L1460.63 827.206 L1460.63 824.046 Q1460.63 816.471 1464.16 813.028 Q1467.68 809.544 1475.34 809.544 L1482.39 809.544 Z" fill="#000000" fill-rule="evenodd" fill-opacity="1"></path><path clip-path="url(#clip910)" d="M1515 809.544 L1522.45 809.544 L1522.45 872.576 L1515 872.576 L1515 809.544 Z" fill="#000000" fill-rule="evenodd" fill-opacity="1"></path><path clip-path="url(#clip910)" d="M1575.76 845.192 L1575.76 872.576 L1568.31 872.576 L1568.31 845.435 Q1568.31 838.994 1565.79 835.794 Q1563.28 832.594 1558.26 832.594 Q1552.22 832.594 1548.74 836.442 Q1545.26 840.29 1545.26 846.934 L1545.26 872.576 L1537.76 872.576 L1537.76 827.206 L1545.26 827.206 L1545.26 834.254 Q1547.93 830.163 1551.54 828.138 Q1555.18 826.112 1559.92 826.112 Q1567.74 826.112 1571.75 830.973 Q1575.76 835.794 1575.76 845.192 Z" fill="#000000" fill-rule="evenodd" fill-opacity="1"></path><path clip-path="url(#clip910)" d="M1625.5 818.821 L1625.5 841.546 L1635.79 841.546 Q1641.51 841.546 1644.63 838.589 Q1647.74 835.632 1647.74 830.163 Q1647.74 824.735 1644.63 821.778 Q1641.51 818.821 1635.79 818.821 L1625.5 818.821 M1617.32 812.096 L1635.79 812.096 Q1645.96 812.096 1651.15 816.714 Q1656.37 821.292 1656.37 830.163 Q1656.37 839.116 1651.15 843.693 Q1645.96 848.271 1635.79 848.271 L1625.5 848.271 L1625.5 872.576 L1617.32 872.576 L1617.32 812.096 Z" fill="#000000" fill-rule="evenodd" fill-opacity="1"></path><path clip-path="url(#clip913)" d="
M320.51 1439.27 L320.51 1470.51 L559.756 1470.51 L559.756 1439.27 L320.51 1439.27 L320.51 1439.27  Z
  " fill="#009af9" fill-rule="evenodd" fill-opacity="1"></path>
<polyline clip-path="url(#clip913)" style="stroke:#000000; stroke-linecap:butt; stroke-linejoin:round; stroke-width:4; stroke-opacity:1; fill:none" points="
  320.51,1439.27 320.51,1470.51 559.756,1470.51 559.756,1439.27 320.51,1439.27 
  "></polyline>
<path clip-path="url(#clip913)" d="
M559.756 1470.51 L559.756 1470.51 L799.001 1470.51 L799.001 1470.51 L559.756 1470.51 L559.756 1470.51  Z
  " fill="#009af9" fill-rule="evenodd" fill-opacity="1"></path>
<polyline clip-path="url(#clip913)" style="stroke:#000000; stroke-linecap:butt; stroke-linejoin:round; stroke-width:4; stroke-opacity:1; fill:none" points="
  559.756,1470.51 559.756,1470.51 799.001,1470.51 559.756,1470.51 
  "></polyline>
<path clip-path="url(#clip913)" d="
M799.001 1189.34 L799.001 1470.51 L1038.25 1470.51 L1038.25 1189.34 L799.001 1189.34 L799.001 1189.34  Z
  " fill="#009af9" fill-rule="evenodd" fill-opacity="1"></path>
<polyline clip-path="url(#clip913)" style="stroke:#000000; stroke-linecap:butt; stroke-linejoin:round; stroke-width:4; stroke-opacity:1; fill:none" points="
  799.001,1189.34 799.001,1470.51 1038.25,1470.51 1038.25,1189.34 799.001,1189.34 
  "></polyline>
<path clip-path="url(#clip913)" d="
M1038.25 1095.61 L1038.25 1470.51 L1277.49 1470.51 L1277.49 1095.61 L1038.25 1095.61 L1038.25 1095.61  Z
  " fill="#009af9" fill-rule="evenodd" fill-opacity="1"></path>
<polyline clip-path="url(#clip913)" style="stroke:#000000; stroke-linecap:butt; stroke-linejoin:round; stroke-width:4; stroke-opacity:1; fill:none" points="
  1038.25,1095.61 1038.25,1470.51 1277.49,1470.51 1277.49,1095.61 1038.25,1095.61 
  "></polyline>
<path clip-path="url(#clip913)" d="
M1277.49 939.405 L1277.49 1470.51 L1516.74 1470.51 L1516.74 939.405 L1277.49 939.405 L1277.49 939.405  Z
  " fill="#009af9" fill-rule="evenodd" fill-opacity="1"></path>
<polyline clip-path="url(#clip913)" style="stroke:#000000; stroke-linecap:butt; stroke-linejoin:round; stroke-width:4; stroke-opacity:1; fill:none" points="
  1277.49,939.405 1277.49,1470.51 1516.74,1470.51 1516.74,939.405 1277.49,939.405 
  "></polyline>
<path clip-path="url(#clip913)" d="
M1516.74 1283.06 L1516.74 1470.51 L1755.98 1470.51 L1755.98 1283.06 L1516.74 1283.06 L1516.74 1283.06  Z
  " fill="#009af9" fill-rule="evenodd" fill-opacity="1"></path>
<polyline clip-path="url(#clip913)" style="stroke:#000000; stroke-linecap:butt; stroke-linejoin:round; stroke-width:4; stroke-opacity:1; fill:none" points="
  1516.74,1283.06 1516.74,1470.51 1755.98,1470.51 1755.98,1283.06 1516.74,1283.06 
  "></polyline>
<path clip-path="url(#clip913)" d="
M1755.98 1345.55 L1755.98 1470.51 L1995.23 1470.51 L1995.23 1345.55 L1755.98 1345.55 L1755.98 1345.55  Z
  " fill="#009af9" fill-rule="evenodd" fill-opacity="1"></path>
<polyline clip-path="url(#clip913)" style="stroke:#000000; stroke-linecap:butt; stroke-linejoin:round; stroke-width:4; stroke-opacity:1; fill:none" points="
  1755.98,1345.55 1755.98,1470.51 1995.23,1470.51 1995.23,1345.55 1755.98,1345.55 
  "></polyline>
<path clip-path="url(#clip913)" d="
M1995.23 1439.27 L1995.23 1470.51 L2234.47 1470.51 L2234.47 1439.27 L1995.23 1439.27 L1995.23 1439.27  Z
  " fill="#009af9" fill-rule="evenodd" fill-opacity="1"></path>
<polyline clip-path="url(#clip913)" style="stroke:#000000; stroke-linecap:butt; stroke-linejoin:round; stroke-width:4; stroke-opacity:1; fill:none" points="
  1995.23,1439.27 1995.23,1470.51 2234.47,1470.51 2234.47,1439.27 1995.23,1439.27 
  "></polyline>
<circle clip-path="url(#clip913)" style="fill:#009af9; stroke:none; fill-opacity:0" cx="440.133" cy="1439.27" r="2"></circle>
<circle clip-path="url(#clip913)" style="fill:#009af9; stroke:none; fill-opacity:0" cx="679.378" cy="1470.51" r="2"></circle>
<circle clip-path="url(#clip913)" style="fill:#009af9; stroke:none; fill-opacity:0" cx="918.624" cy="1189.34" r="2"></circle>
<circle clip-path="url(#clip913)" style="fill:#009af9; stroke:none; fill-opacity:0" cx="1157.87" cy="1095.61" r="2"></circle>
<circle clip-path="url(#clip913)" style="fill:#009af9; stroke:none; fill-opacity:0" cx="1397.11" cy="939.405" r="2"></circle>
<circle clip-path="url(#clip913)" style="fill:#009af9; stroke:none; fill-opacity:0" cx="1636.36" cy="1283.06" r="2"></circle>
<circle clip-path="url(#clip913)" style="fill:#009af9; stroke:none; fill-opacity:0" cx="1875.61" cy="1345.55" r="2"></circle>
<circle clip-path="url(#clip913)" style="fill:#009af9; stroke:none; fill-opacity:0" cx="2114.85" cy="1439.27" r="2"></circle>
<path clip-path="url(#clip910)" d="
M1989.69 1045.92 L2281.07 1045.92 L2281.07 942.238 L1989.69 942.238  Z
  " fill="#ffffff" fill-rule="evenodd" fill-opacity="1"></path>
<polyline clip-path="url(#clip910)" style="stroke:#000000; stroke-linecap:butt; stroke-linejoin:round; stroke-width:4; stroke-opacity:1; fill:none" points="
  1989.69,1045.92 2281.07,1045.92 2281.07,942.238 1989.69,942.238 1989.69,1045.92 
  "></polyline>
<path clip-path="url(#clip910)" d="
M2013.59 1014.81 L2156.96 1014.81 L2156.96 973.342 L2013.59 973.342 L2013.59 1014.81  Z
  " fill="#009af9" fill-rule="evenodd" fill-opacity="1"></path>
<polyline clip-path="url(#clip910)" style="stroke:#000000; stroke-linecap:butt; stroke-linejoin:round; stroke-width:4; stroke-opacity:1; fill:none" points="
  2013.59,1014.81 2156.96,1014.81 2156.96,973.342 2013.59,973.342 2013.59,1014.81 
  "></polyline>
<path clip-path="url(#clip910)" d="M2194.69 1013.77 Q2192.89 1018.39 2191.18 1019.81 Q2189.46 1021.22 2186.59 1021.22 L2183.19 1021.22 L2183.19 1017.65 L2185.69 1017.65 Q2187.45 1017.65 2188.42 1016.82 Q2189.39 1015.99 2190.57 1012.89 L2191.34 1010.94 L2180.85 985.432 L2185.37 985.432 L2193.47 1005.71 L2201.57 985.432 L2206.08 985.432 L2194.69 1013.77 Z" fill="#000000" fill-rule="evenodd" fill-opacity="1"></path><path clip-path="url(#clip910)" d="M2213.37 1007.42 L2221.01 1007.42 L2221.01 981.057 L2212.7 982.724 L2212.7 978.465 L2220.97 976.798 L2225.64 976.798 L2225.64 1007.42 L2233.28 1007.42 L2233.28 1011.36 L2213.37 1011.36 L2213.37 1007.42 Z" fill="#000000" fill-rule="evenodd" fill-opacity="1"></path></svg>